# xmcd
#
# Track frame offsets:
#	150
#	15577
#	26204
#	44782
#	55696
#	70812
#	86419
#	100088
#	115923
#	130218
#	145145
#	158467
#	171034
#	184490
#	206931
#	220901
#	234355
#	246485
#	263624
#	280762
#	292373
#	310230
#
# Disc length: 4346 seconds
#
# Revision: 0
# Processed by: cddbd v1.5.2PL0 Copyright (c) Steve Scherf et al.
# Submitted via: EZCDAudioConverter 7.1.0.1
#
DISCID=4b10f816
DTITLE=Nu Urban Traxx Volume 259 US
DYEAR=2019
DGENRE=blues
TTITLE0=Lil Pump ft. Lil Wayne - Be Like Me
TTITLE1=Trey Songz ft. Chris Brown - Chi Chi
TTITLE2=2 Chainz ft. Ariana Grande - Rule The World
TTITLE3=Blueface - Bleed It
TTITLE4=Cardi B and Bruno Mars - Please Me
TTITLE5=Offset ft. Cardi B - Clout
TTITLE6=Young Dolph - By Mistake
TTITLE7=Wale ft. Megan Thee Stallion - Poledancer
TTITLE8=YK Osiris - Worth It
TTITLE9=Khalid - Talk
TTITLE10=Tyga ft. G-Eazy and Rich The Kid - Girls Have Fun
TTITLE11=Polo G and Lil Tjay - Pop Out
TTITLE12=Ariana Grande - 7 Rings
TTITLE13=Blueface ft. Cardi B and YG - Thotiana [Remix]
TTITLE14=Asiahn - Like You
TTITLE15=Gunna - Speed It Up
TTITLE16=Roddy Ricch - Die Young
TTITLE17=Elle Varner ft. Wale - Pour Me
TTITLE18=Birdman x Juvenile - Just Another Gangsta
TTITLE19=Luke Nasty - Baller
TTITLE20=John Legend - Preach
TTITLE21=Lucky Daye - Roll Some Mo
EXTD=
EXTT0=
EXTT1=
EXTT2=
EXTT3=
EXTT4=
EXTT5=
EXTT6=
EXTT7=
EXTT8=
EXTT9=
EXTT10=
EXTT11=
EXTT12=
EXTT13=
EXTT14=
EXTT15=
EXTT16=
EXTT17=
EXTT18=
EXTT19=
EXTT20=
EXTT21=
PLAYORDER=
